<mxfile host="app.diagrams.net" modified="2023-09-24T14:30:41.412Z" agent="Mozilla/5.0 (Windows NT 10.0; Win64; x64) AppleWebKit/537.36 (KHTML, like Gecko) Chrome/116.0.0.0 Safari/537.36" etag="SzckZd84F0SSYpKcVP1q" version="21.7.5" type="github">
  <diagram id="C5RBs43oDa-KdzZeNtuy" name="Page-1">
    <mxGraphModel dx="1007" dy="567" grid="1" gridSize="10" guides="1" tooltips="1" connect="1" arrows="1" fold="1" page="1" pageScale="1" pageWidth="827" pageHeight="1169" math="0" shadow="0">
      <root>
        <mxCell id="WIyWlLk6GJQsqaUBKTNV-0" />
        <mxCell id="WIyWlLk6GJQsqaUBKTNV-1" parent="WIyWlLk6GJQsqaUBKTNV-0" />
        <mxCell id="8Ijqcef0fHowgQhYwS5n-9" style="edgeStyle=orthogonalEdgeStyle;rounded=0;orthogonalLoop=1;jettySize=auto;html=1;strokeColor=default;endArrow=none;endFill=0;" edge="1" parent="WIyWlLk6GJQsqaUBKTNV-1">
          <mxGeometry relative="1" as="geometry">
            <mxPoint x="430" y="389.92" as="sourcePoint" />
            <mxPoint x="430" y="470" as="targetPoint" />
            <Array as="points" />
          </mxGeometry>
        </mxCell>
        <mxCell id="8Ijqcef0fHowgQhYwS5n-12" value="approve" style="edgeLabel;html=1;align=center;verticalAlign=middle;resizable=0;points=[];" vertex="1" connectable="0" parent="8Ijqcef0fHowgQhYwS5n-9">
          <mxGeometry x="0.0151" relative="1" as="geometry">
            <mxPoint as="offset" />
          </mxGeometry>
        </mxCell>
        <mxCell id="8Ijqcef0fHowgQhYwS5n-15" value="0..*" style="edgeLabel;html=1;align=center;verticalAlign=middle;resizable=0;points=[];" vertex="1" connectable="0" parent="8Ijqcef0fHowgQhYwS5n-9">
          <mxGeometry x="0.8394" y="-1" relative="1" as="geometry">
            <mxPoint x="11" y="-2" as="offset" />
          </mxGeometry>
        </mxCell>
        <mxCell id="8Ijqcef0fHowgQhYwS5n-16" value="1" style="edgeLabel;html=1;align=center;verticalAlign=middle;resizable=0;points=[];" vertex="1" connectable="0" parent="8Ijqcef0fHowgQhYwS5n-9">
          <mxGeometry x="-0.8745" relative="1" as="geometry">
            <mxPoint x="6" y="2" as="offset" />
          </mxGeometry>
        </mxCell>
        <mxCell id="8Ijqcef0fHowgQhYwS5n-35" style="edgeStyle=orthogonalEdgeStyle;rounded=0;orthogonalLoop=1;jettySize=auto;html=1;exitX=0.25;exitY=0;exitDx=0;exitDy=0;endArrow=none;endFill=0;" edge="1" parent="WIyWlLk6GJQsqaUBKTNV-1">
          <mxGeometry relative="1" as="geometry">
            <mxPoint x="368" y="230" as="targetPoint" />
            <mxPoint x="368" y="310" as="sourcePoint" />
          </mxGeometry>
        </mxCell>
        <mxCell id="8Ijqcef0fHowgQhYwS5n-37" value="1" style="edgeLabel;html=1;align=center;verticalAlign=middle;resizable=0;points=[];" vertex="1" connectable="0" parent="8Ijqcef0fHowgQhYwS5n-35">
          <mxGeometry x="-0.8429" y="-1" relative="1" as="geometry">
            <mxPoint x="-8" y="-1" as="offset" />
          </mxGeometry>
        </mxCell>
        <mxCell id="8Ijqcef0fHowgQhYwS5n-39" value="0..*" style="edgeLabel;html=1;align=center;verticalAlign=middle;resizable=0;points=[];" vertex="1" connectable="0" parent="8Ijqcef0fHowgQhYwS5n-35">
          <mxGeometry x="0.8872" y="-1" relative="1" as="geometry">
            <mxPoint x="-12" as="offset" />
          </mxGeometry>
        </mxCell>
        <mxCell id="8Ijqcef0fHowgQhYwS5n-44" value="assigned" style="edgeLabel;html=1;align=center;verticalAlign=middle;resizable=0;points=[];" vertex="1" connectable="0" parent="8Ijqcef0fHowgQhYwS5n-35">
          <mxGeometry x="0.0661" relative="1" as="geometry">
            <mxPoint as="offset" />
          </mxGeometry>
        </mxCell>
        <mxCell id="8Ijqcef0fHowgQhYwS5n-41" style="edgeStyle=orthogonalEdgeStyle;rounded=0;orthogonalLoop=1;jettySize=auto;html=1;exitX=0.75;exitY=0;exitDx=0;exitDy=0;endArrow=none;endFill=0;" edge="1" parent="WIyWlLk6GJQsqaUBKTNV-1" source="zkfFHV4jXpPFQw0GAbJ--0">
          <mxGeometry relative="1" as="geometry">
            <mxPoint x="439.9130434782609" y="230" as="targetPoint" />
          </mxGeometry>
        </mxCell>
        <mxCell id="8Ijqcef0fHowgQhYwS5n-42" value="0..*" style="edgeLabel;html=1;align=center;verticalAlign=middle;resizable=0;points=[];" vertex="1" connectable="0" parent="8Ijqcef0fHowgQhYwS5n-41">
          <mxGeometry x="0.8433" relative="1" as="geometry">
            <mxPoint x="11" as="offset" />
          </mxGeometry>
        </mxCell>
        <mxCell id="8Ijqcef0fHowgQhYwS5n-43" value="1" style="edgeLabel;html=1;align=center;verticalAlign=middle;resizable=0;points=[];" vertex="1" connectable="0" parent="8Ijqcef0fHowgQhYwS5n-41">
          <mxGeometry x="-0.7673" y="2" relative="1" as="geometry">
            <mxPoint x="-3" y="2" as="offset" />
          </mxGeometry>
        </mxCell>
        <mxCell id="8Ijqcef0fHowgQhYwS5n-45" value="assign" style="edgeLabel;html=1;align=center;verticalAlign=middle;resizable=0;points=[];" vertex="1" connectable="0" parent="8Ijqcef0fHowgQhYwS5n-41">
          <mxGeometry x="0.0157" y="1" relative="1" as="geometry">
            <mxPoint as="offset" />
          </mxGeometry>
        </mxCell>
        <mxCell id="zkfFHV4jXpPFQw0GAbJ--0" value="Collaborator" style="swimlane;fontStyle=2;align=center;verticalAlign=top;childLayout=stackLayout;horizontal=1;startSize=26;horizontalStack=0;resizeParent=1;resizeLast=0;collapsible=1;marginBottom=0;rounded=0;shadow=0;strokeWidth=1;fillColor=#dae8fc;strokeColor=#6c8ebf;" parent="WIyWlLk6GJQsqaUBKTNV-1" vertex="1">
          <mxGeometry x="330" y="310" width="160" height="79.92" as="geometry">
            <mxRectangle x="230" y="140" width="160" height="26" as="alternateBounds" />
          </mxGeometry>
        </mxCell>
        <mxCell id="zkfFHV4jXpPFQw0GAbJ--13" value="MonthlyTimesheetRequest" style="swimlane;fontStyle=0;align=center;verticalAlign=top;childLayout=stackLayout;horizontal=1;startSize=26;horizontalStack=0;resizeParent=1;resizeLast=0;collapsible=1;marginBottom=0;rounded=0;shadow=0;strokeWidth=1;fillColor=#dae8fc;strokeColor=#6c8ebf;" parent="WIyWlLk6GJQsqaUBKTNV-1" vertex="1">
          <mxGeometry x="320" y="470" width="160" height="50" as="geometry">
            <mxRectangle x="340" y="380" width="170" height="26" as="alternateBounds" />
          </mxGeometry>
        </mxCell>
        <mxCell id="8Ijqcef0fHowgQhYwS5n-6" style="edgeStyle=orthogonalEdgeStyle;rounded=0;orthogonalLoop=1;jettySize=auto;html=1;endArrow=none;endFill=0;entryX=1;entryY=0.25;entryDx=0;entryDy=0;" edge="1" parent="WIyWlLk6GJQsqaUBKTNV-1" target="zkfFHV4jXpPFQw0GAbJ--0">
          <mxGeometry relative="1" as="geometry">
            <mxPoint x="460" y="310" as="sourcePoint" />
            <mxPoint x="500" y="330" as="targetPoint" />
            <Array as="points">
              <mxPoint x="460" y="290" />
              <mxPoint x="510" y="290" />
              <mxPoint x="510" y="330" />
            </Array>
          </mxGeometry>
        </mxCell>
        <mxCell id="8Ijqcef0fHowgQhYwS5n-7" value="manager" style="edgeLabel;html=1;align=center;verticalAlign=middle;resizable=0;points=[];" vertex="1" connectable="0" parent="8Ijqcef0fHowgQhYwS5n-6">
          <mxGeometry x="-0.3128" y="-1" relative="1" as="geometry">
            <mxPoint x="2" y="-11" as="offset" />
          </mxGeometry>
        </mxCell>
        <mxCell id="8Ijqcef0fHowgQhYwS5n-8" value="0..1" style="edgeLabel;html=1;align=center;verticalAlign=middle;resizable=0;points=[];" vertex="1" connectable="0" parent="8Ijqcef0fHowgQhYwS5n-6">
          <mxGeometry x="-0.9135" y="2" relative="1" as="geometry">
            <mxPoint x="17" y="-2" as="offset" />
          </mxGeometry>
        </mxCell>
        <mxCell id="8Ijqcef0fHowgQhYwS5n-10" style="edgeStyle=orthogonalEdgeStyle;rounded=0;orthogonalLoop=1;jettySize=auto;html=1;strokeColor=default;endArrow=none;endFill=0;" edge="1" parent="WIyWlLk6GJQsqaUBKTNV-1">
          <mxGeometry relative="1" as="geometry">
            <mxPoint x="370" y="389.92" as="sourcePoint" />
            <mxPoint x="370" y="470" as="targetPoint" />
            <Array as="points">
              <mxPoint x="370" y="389.92" />
            </Array>
          </mxGeometry>
        </mxCell>
        <mxCell id="8Ijqcef0fHowgQhYwS5n-11" value="send" style="edgeLabel;html=1;align=center;verticalAlign=middle;resizable=0;points=[];" vertex="1" connectable="0" parent="8Ijqcef0fHowgQhYwS5n-10">
          <mxGeometry x="0.0409" y="1" relative="1" as="geometry">
            <mxPoint as="offset" />
          </mxGeometry>
        </mxCell>
        <mxCell id="8Ijqcef0fHowgQhYwS5n-13" value="1" style="edgeLabel;html=1;align=center;verticalAlign=middle;resizable=0;points=[];" vertex="1" connectable="0" parent="8Ijqcef0fHowgQhYwS5n-10">
          <mxGeometry x="-0.8384" y="-5" relative="1" as="geometry">
            <mxPoint x="-2" y="2" as="offset" />
          </mxGeometry>
        </mxCell>
        <mxCell id="8Ijqcef0fHowgQhYwS5n-14" value="0..*" style="edgeLabel;html=1;align=center;verticalAlign=middle;resizable=0;points=[];" vertex="1" connectable="0" parent="8Ijqcef0fHowgQhYwS5n-10">
          <mxGeometry x="0.8594" relative="1" as="geometry">
            <mxPoint x="-10" y="-3" as="offset" />
          </mxGeometry>
        </mxCell>
        <mxCell id="8Ijqcef0fHowgQhYwS5n-17" value="Project" style="swimlane;fontStyle=0;align=center;verticalAlign=top;childLayout=stackLayout;horizontal=1;startSize=26;horizontalStack=0;resizeParent=1;resizeLast=0;collapsible=1;marginBottom=0;rounded=0;shadow=0;strokeWidth=1;fillColor=#dae8fc;strokeColor=#6c8ebf;" vertex="1" parent="WIyWlLk6GJQsqaUBKTNV-1">
          <mxGeometry x="100" y="150" width="160" height="80" as="geometry">
            <mxRectangle x="550" y="140" width="160" height="26" as="alternateBounds" />
          </mxGeometry>
        </mxCell>
        <mxCell id="8Ijqcef0fHowgQhYwS5n-27" style="edgeStyle=orthogonalEdgeStyle;rounded=0;orthogonalLoop=1;jettySize=auto;html=1;endArrow=none;endFill=0;" edge="1" parent="WIyWlLk6GJQsqaUBKTNV-1">
          <mxGeometry relative="1" as="geometry">
            <mxPoint x="350" y="200" as="sourcePoint" />
            <mxPoint x="260" y="200" as="targetPoint" />
            <Array as="points">
              <mxPoint x="290" y="200" />
              <mxPoint x="290" y="200" />
            </Array>
          </mxGeometry>
        </mxCell>
        <mxCell id="8Ijqcef0fHowgQhYwS5n-28" value="1" style="edgeLabel;html=1;align=center;verticalAlign=middle;resizable=0;points=[];" vertex="1" connectable="0" parent="8Ijqcef0fHowgQhYwS5n-27">
          <mxGeometry x="0.969" y="-1" relative="1" as="geometry">
            <mxPoint x="9" y="-9" as="offset" />
          </mxGeometry>
        </mxCell>
        <mxCell id="8Ijqcef0fHowgQhYwS5n-29" value="0..*" style="edgeLabel;html=1;align=center;verticalAlign=middle;resizable=0;points=[];" vertex="1" connectable="0" parent="8Ijqcef0fHowgQhYwS5n-27">
          <mxGeometry x="-0.888" relative="1" as="geometry">
            <mxPoint x="-7" y="-10" as="offset" />
          </mxGeometry>
        </mxCell>
        <mxCell id="8Ijqcef0fHowgQhYwS5n-47" value="assigned" style="edgeLabel;html=1;align=center;verticalAlign=middle;resizable=0;points=[];" vertex="1" connectable="0" parent="8Ijqcef0fHowgQhYwS5n-27">
          <mxGeometry x="-0.146" relative="1" as="geometry">
            <mxPoint x="-4" as="offset" />
          </mxGeometry>
        </mxCell>
        <mxCell id="8Ijqcef0fHowgQhYwS5n-26" value="AssignedProject" style="swimlane;fontStyle=0;align=center;verticalAlign=top;childLayout=stackLayout;horizontal=1;startSize=26;horizontalStack=0;resizeParent=1;resizeLast=0;collapsible=1;marginBottom=0;rounded=0;shadow=0;strokeWidth=1;fillColor=#dae8fc;strokeColor=#6c8ebf;" vertex="1" parent="WIyWlLk6GJQsqaUBKTNV-1">
          <mxGeometry x="350" y="150" width="160" height="80" as="geometry">
            <mxRectangle x="550" y="140" width="160" height="26" as="alternateBounds" />
          </mxGeometry>
        </mxCell>
        <mxCell id="8Ijqcef0fHowgQhYwS5n-32" style="edgeStyle=orthogonalEdgeStyle;rounded=0;orthogonalLoop=1;jettySize=auto;html=1;exitX=0;exitY=0.5;exitDx=0;exitDy=0;entryX=1;entryY=0.5;entryDx=0;entryDy=0;endArrow=none;endFill=0;" edge="1" parent="WIyWlLk6GJQsqaUBKTNV-1" source="8Ijqcef0fHowgQhYwS5n-30" target="8Ijqcef0fHowgQhYwS5n-26">
          <mxGeometry relative="1" as="geometry" />
        </mxCell>
        <mxCell id="8Ijqcef0fHowgQhYwS5n-33" value="1" style="edgeLabel;html=1;align=center;verticalAlign=middle;resizable=0;points=[];" vertex="1" connectable="0" parent="8Ijqcef0fHowgQhYwS5n-32">
          <mxGeometry x="0.7184" relative="1" as="geometry">
            <mxPoint x="-5" y="-8" as="offset" />
          </mxGeometry>
        </mxCell>
        <mxCell id="8Ijqcef0fHowgQhYwS5n-34" value="0..*" style="edgeLabel;html=1;align=center;verticalAlign=middle;resizable=0;points=[];" vertex="1" connectable="0" parent="8Ijqcef0fHowgQhYwS5n-32">
          <mxGeometry x="-0.8563" relative="1" as="geometry">
            <mxPoint x="-4" y="-8" as="offset" />
          </mxGeometry>
        </mxCell>
        <mxCell id="8Ijqcef0fHowgQhYwS5n-46" value="has" style="edgeLabel;html=1;align=center;verticalAlign=middle;resizable=0;points=[];" vertex="1" connectable="0" parent="8Ijqcef0fHowgQhYwS5n-32">
          <mxGeometry x="0.0519" relative="1" as="geometry">
            <mxPoint as="offset" />
          </mxGeometry>
        </mxCell>
        <mxCell id="8Ijqcef0fHowgQhYwS5n-30" value="TimesheetEntry" style="swimlane;fontStyle=0;align=center;verticalAlign=top;childLayout=stackLayout;horizontal=1;startSize=26;horizontalStack=0;resizeParent=1;resizeLast=0;collapsible=1;marginBottom=0;rounded=0;shadow=0;strokeWidth=1;fillColor=#dae8fc;strokeColor=#6c8ebf;" vertex="1" parent="WIyWlLk6GJQsqaUBKTNV-1">
          <mxGeometry x="590" y="150" width="160" height="80" as="geometry">
            <mxRectangle x="550" y="140" width="160" height="26" as="alternateBounds" />
          </mxGeometry>
        </mxCell>
      </root>
    </mxGraphModel>
  </diagram>
</mxfile>
